<?xml version="1.0" standalone="no"?>
<!DOCTYPE svg PUBLIC "-//W3C//DTD SVG 20010904//EN"
 "http://www.w3.org/TR/2001/REC-SVG-20010904/DTD/svg10.dtd">
<svg version="1.0" xmlns="http://www.w3.org/2000/svg"
 width="540.000000pt" height="960.000000pt" viewBox="0 0 540.000000 960.000000"
 preserveAspectRatio="xMidYMid meet">

<g transform="translate(0.000000,960.000000) scale(0.100000,-0.100000)"
fill="#000000" stroke="none">
<path d="M2367 9581 c3 -10 0 -22 -6 -25 -6 -4 -11 -16 -11 -28 0 -15 -5 -19
-20 -15 -11 3 -18 2 -15 -3 3 -4 -3 -10 -13 -12 -25 -7 -25 -74 1 -70 23 4 21
-9 -8 -49 -13 -19 -30 -45 -37 -59 -7 -14 -23 -35 -35 -47 -13 -12 -23 -29
-23 -38 0 -8 -6 -15 -12 -15 -18 -1 -101 -118 -103 -144 -1 -11 -5 -31 -9 -43
-5 -16 -3 -23 5 -23 9 0 10 -15 5 -57 -4 -32 -9 -91 -12 -131 -2 -40 -11 -98
-20 -129 -11 -39 -16 -95 -16 -195 0 -77 3 -142 5 -145 3 -3 16 2 29 11 12 9
37 16 55 16 l33 0 1 -52 c0 -29 2 -78 5 -110 2 -31 0 -74 -5 -96 -4 -22 -6
-53 -3 -67 4 -25 7 -27 45 -21 43 7 111 -10 102 -25 -4 -5 -1 -9 4 -9 6 0 11
4 11 9 0 6 12 6 32 0 18 -5 33 -9 34 -9 0 0 11 8 22 19 13 11 31 16 45 14 14
-3 29 2 36 11 8 9 20 16 27 16 8 0 14 5 14 10 0 6 13 10 30 10 23 0 28 3 23
17 -5 12 -2 15 9 10 10 -3 25 4 39 19 12 13 28 24 35 24 24 0 26 -21 5 -41
-12 -11 -18 -25 -15 -31 4 -6 3 -8 -3 -5 -9 6 -50 -70 -45 -85 1 -5 -5 -8 -13
-8 -8 0 -15 -4 -15 -10 0 -6 19 -7 48 -3 l47 6 -32 -29 c-19 -16 -33 -38 -33
-51 0 -13 -4 -23 -10 -23 -5 0 -10 -7 -10 -15 0 -8 -4 -15 -10 -15 -5 0 -10 6
-10 14 0 8 -5 18 -12 22 -6 4 -8 3 -4 -4 3 -6 2 -13 -4 -17 -25 -16 -8 -27 31
-21 40 6 41 6 37 -19 -4 -19 -2 -25 8 -21 14 5 19 -5 8 -16 -8 -8 -9 -239 -1
-264 4 -11 19 -27 32 -34 14 -7 25 -17 25 -22 0 -17 25 -33 46 -32 12 1 32 -4
44 -11 l23 -13 -23 -7 c-15 -5 -26 -3 -28 4 -2 6 -11 11 -20 10 -9 0 -12 -3
-6 -5 7 -3 10 -14 7 -24 -4 -16 -9 -18 -24 -9 -10 5 -19 16 -19 24 0 8 -4 15
-10 15 -15 0 -12 -48 3 -53 6 -2 -5 -8 -25 -12 -43 -8 -69 -1 -66 17 2 7 -6
13 -17 14 -29 1 -39 -7 -24 -17 10 -6 8 -9 -9 -9 -13 0 -21 4 -17 9 9 15 -35
24 -51 10 -13 -10 -17 -10 -24 0 -4 8 -16 11 -29 6 -16 -5 -20 -12 -17 -28 3
-12 3 -17 0 -11 -8 18 -44 4 -55 -20 -7 -16 -8 -12 -3 14 4 19 7 46 8 60 0 14
7 30 16 37 8 7 11 13 7 13 -13 0 13 40 26 40 7 1 22 16 33 34 l22 34 -52 -2
c-28 -1 -56 -5 -63 -9 -6 -4 -14 -3 -17 2 -4 6 -19 6 -39 0 -45 -13 -51 -11
-36 7 10 13 10 17 -2 24 -21 13 -33 -5 -19 -30 19 -35 4 -35 -32 0 l-32 33 -9
-27 c-5 -14 -13 -26 -19 -26 -7 0 -7 4 0 13 5 6 13 27 17 45 3 17 11 32 17 32
6 0 9 2 6 5 -9 9 -38 -6 -38 -20 0 -8 -5 -26 -11 -42 -6 -15 -10 -30 -11 -33
0 -3 -4 -10 -9 -17 -7 -7 -6 -14 1 -18 6 -4 8 -15 5 -26 -4 -13 -2 -17 7 -14
15 6 18 -41 4 -63 -4 -7 -3 -19 3 -26 6 -7 12 -50 15 -97 4 -88 11 -119 28
-119 6 0 6 -6 -1 -14 -10 -11 -10 -20 -1 -36 7 -12 9 -33 6 -46 -6 -24 9 -35
17 -11 2 6 7 -10 11 -36 4 -27 16 -57 26 -67 10 -10 16 -21 13 -24 -3 -3 0
-13 8 -22 7 -9 13 -26 14 -37 0 -12 5 -23 10 -25 10 -3 33 -37 25 -37 -2 0 3
-11 10 -25 8 -14 15 -27 15 -30 3 -13 42 -75 58 -92 9 -10 17 -21 17 -26 0 -4
14 -24 31 -45 32 -39 54 -97 50 -134 -1 -12 4 -50 13 -85 8 -35 20 -104 26
-155 l12 -92 -43 -53 c-25 -31 -49 -52 -58 -50 -69 12 -104 14 -110 4 -4 -7
-41 -21 -83 -31 -42 -11 -97 -29 -122 -40 -25 -12 -50 -21 -55 -21 -14 0 -41
-54 -41 -83 0 -19 -19 -35 -102 -87 -57 -34 -154 -99 -216 -144 -137 -98 -323
-233 -337 -244 -5 -4 -37 -28 -69 -52 -33 -24 -71 -53 -84 -64 -79 -66 -153
-136 -183 -171 -19 -22 -43 -49 -54 -60 -11 -12 -31 -43 -45 -71 -14 -27 -28
-51 -31 -54 -9 -7 -59 -161 -59 -182 0 -9 -5 -20 -10 -23 -6 -3 -7 -17 -4 -31
4 -17 2 -24 -9 -24 -8 0 -14 7 -13 16 0 9 -4 19 -11 21 -13 5 -12 -14 4 -42 9
-16 7 -30 -10 -66 -14 -30 -27 -44 -36 -41 -8 3 -11 0 -7 -7 4 -6 13 -11 21
-11 7 0 12 -8 10 -17 -4 -24 -14 -118 -31 -281 -4 -40 -10 -74 -13 -77 -7 -4
13 -195 25 -232 7 -24 -10 -33 -19 -10 -3 6 -6 -2 -6 -20 -1 -17 -5 -35 -11
-38 -12 -7 -3 -89 11 -93 5 -2 -2 -13 -16 -24 -14 -11 -32 -17 -40 -14 -9 3
-15 0 -15 -9 0 -11 8 -13 30 -8 19 3 30 1 30 -6 0 -6 -11 -11 -25 -11 -20 0
-25 -5 -25 -25 0 -16 -6 -25 -16 -25 -11 0 -14 -5 -10 -16 3 -9 6 -21 6 -27 0
-7 9 7 20 31 20 45 35 53 43 23 3 -14 0 -17 -14 -14 -20 6 -27 -21 -9 -32 6
-4 8 -11 5 -16 -8 -12 -55 -12 -55 0 0 5 -11 8 -25 7 -14 0 -25 -7 -25 -13 0
-7 -8 -13 -18 -13 -10 0 -24 6 -31 13 -10 10 -11 9 -6 -4 4 -11 -2 -23 -17
-33 -13 -10 -17 -16 -8 -16 11 0 11 -3 -2 -13 -9 -6 -19 -22 -23 -34 -5 -18
-3 -22 9 -17 21 8 21 -19 1 -36 -12 -10 -15 -9 -15 6 -1 18 -1 18 -14 2 -18
-25 -26 -22 -26 7 0 13 8 29 18 34 9 6 13 10 7 11 -27 0 -56 -52 -35 -65 15
-9 12 -25 -5 -25 -9 0 -15 -9 -15 -22 0 -19 -2 -20 -10 -8 -8 11 -9 8 -4 -12
5 -23 0 -33 -31 -62 -20 -19 -34 -40 -30 -46 3 -5 1 -10 -6 -10 -23 0 -38 -35
-39 -90 -1 -45 -3 -51 -11 -32 -9 24 -10 23 -54 -22 -24 -25 -48 -46 -53 -46
-6 0 -12 13 -14 29 -2 17 -1 28 3 25 9 -5 4 50 -6 67 -4 6 -1 22 6 36 9 16 10
27 3 31 -6 4 -10 29 -10 57 0 41 -3 51 -19 54 -22 4 -45 -24 -45 -56 0 -16 -6
-23 -20 -23 -13 0 -20 7 -20 19 0 10 -7 24 -15 31 -11 9 -15 9 -15 1 0 -7 -4
-9 -10 -6 -7 4 -10 -128 -10 -389 0 -352 2 -396 16 -396 9 0 12 -5 8 -12 -5
-8 -2 -9 10 -5 10 4 20 7 22 7 3 0 -4 10 -16 22 -22 24 -26 38 -10 38 6 0 10
-7 10 -15 0 -18 16 -20 26 -3 4 6 0 16 -9 23 -9 7 -13 15 -9 19 4 4 7 26 8 49
0 22 6 43 12 45 7 2 12 10 12 18 0 8 -6 11 -15 8 -23 -9 -18 14 6 27 15 8 19
8 15 0 -4 -6 0 -11 9 -11 11 0 15 5 12 14 -3 8 -1 17 6 20 7 2 2 8 -11 12 -18
5 -20 9 -10 15 7 5 24 9 37 9 16 0 21 4 17 15 -3 8 -1 15 4 15 6 0 10 -5 10
-11 0 -5 5 -7 12 -3 8 5 5 11 -10 17 -12 6 -22 16 -22 23 0 7 -3 19 -6 28 -4
12 0 16 15 16 12 0 21 -6 21 -15 0 -8 4 -15 8 -15 5 0 8 10 7 23 -3 32 4 39
27 26 16 -9 23 -8 29 2 6 10 9 11 9 2 0 -25 21 -12 26 16 5 21 12 29 25 28 19
-1 28 -17 10 -17 -14 0 -19 -46 -7 -62 15 -19 46 -11 46 14 0 11 5 18 13 15 6
-2 10 -11 8 -18 -2 -8 -6 -29 -9 -47 -3 -25 -1 -32 12 -32 9 0 16 5 16 11 0 5
5 7 11 3 6 -3 9 -15 6 -25 -4 -14 0 -19 14 -19 10 0 19 -6 19 -14 0 -8 6 -17
13 -19 7 -4 6 -6 -5 -6 -31 -2 -65 -51 -35 -51 8 0 23 -11 36 -23 19 -21 20
-26 7 -36 -11 -9 -16 -9 -21 0 -6 8 -10 7 -16 -2 -14 -22 -11 -42 6 -35 8 3
15 1 15 -4 0 -14 27 -12 33 3 4 9 6 9 6 0 1 -7 -10 -20 -24 -29 -18 -12 -24
-22 -20 -35 4 -12 1 -21 -9 -25 -9 -3 -13 -10 -10 -15 6 -11 34 14 34 31 0 6
6 10 13 8 34 -12 -3 -108 -42 -108 -12 0 -17 -12 -19 -45 -2 -40 0 -45 18 -45
23 0 27 -15 5 -24 -8 -3 -12 -12 -9 -20 8 -20 -21 -78 -46 -94 -15 -9 -26 -10
-40 -2 -16 8 -20 8 -20 -4 0 -7 6 -14 13 -13 29 1 47 -4 47 -12 0 -5 -11 -9
-25 -9 -14 0 -34 -7 -44 -16 -9 -9 -23 -16 -29 -16 -14 0 -15 -10 -2 -30 6
-10 10 -11 10 -2 0 18 27 15 34 -4 8 -22 9 -21 -25 -28 -19 -4 -33 -13 -36
-26 -3 -11 -8 -18 -12 -16 -11 7 -26 -18 -28 -47 -2 -33 -21 -60 -35 -51 -5 3
-2 14 7 24 17 19 13 40 -7 40 -6 0 -8 -9 -5 -19 4 -15 -2 -22 -25 -30 -26 -9
-30 -15 -26 -39 2 -16 -2 -34 -9 -41 -13 -11 -14 -11 -17 8 -3 21 -16 23 -16
2 0 -12 -4 -20 -9 -17 -5 3 -11 -3 -14 -13 -3 -13 1 -21 14 -24 28 -7 23 -25
-5 -20 -19 4 -24 1 -23 -14 2 -13 -4 -18 -20 -17 -21 1 -23 -4 -23 -43 0 -25
4 -42 9 -38 5 3 12 1 16 -5 3 -6 -1 -13 -9 -16 -14 -6 -16 -91 -16 -820 l0
-814 2700 0 2700 0 0 1494 c0 1186 -3 1495 -12 1499 -10 4 -10 6 0 6 15 1 16
52 1 104 -8 30 -14 36 -32 34 -12 -2 -16 -2 -9 0 19 7 14 23 -8 23 -13 0 -18
5 -14 15 4 8 1 15 -6 15 -6 0 -9 4 -6 9 3 4 -3 16 -14 26 -11 10 -20 28 -20
40 0 11 -5 26 -11 32 -6 6 -8 17 -3 24 4 7 9 23 10 36 2 13 5 33 9 45 4 16 3
19 -3 9 -7 -9 -12 -10 -16 -2 -4 6 2 15 15 19 15 6 18 11 11 16 -18 11 -14 26
6 27 13 0 12 2 -5 9 -24 10 -32 32 -11 27 17 -3 11 123 -8 176 -8 22 -14 46
-14 54 0 19 -26 44 -42 41 -7 -2 -12 3 -11 10 2 6 -1 12 -6 12 -5 0 -7 8 -4
19 3 14 -2 20 -22 25 -14 4 -30 17 -35 30 -7 18 -14 23 -30 19 -14 -4 -29 3
-47 21 -17 17 -30 23 -37 17 -8 -6 -19 -1 -35 15 -16 17 -26 21 -31 14 -8 -12
-50 47 -50 69 0 7 -5 9 -10 6 -6 -4 -8 -10 -5 -15 3 -4 -2 -10 -10 -14 -8 -3
-15 -1 -15 4 0 6 -7 10 -16 10 -12 0 -15 -6 -10 -25 4 -17 2 -25 -6 -25 -9 -1
-8 -4 2 -13 9 -7 17 -27 18 -44 2 -27 -1 -33 -18 -33 -20 0 -23 10 -22 73 0
15 -3 27 -7 27 -9 0 -26 52 -41 121 -15 74 -24 213 -22 364 1 77 1 158 0 180
-1 51 0 60 8 120 3 28 7 77 8 110 0 33 6 65 12 72 6 6 12 34 13 61 0 27 10 77
22 111 11 34 17 72 14 84 -5 17 -4 19 4 7 8 -12 11 -12 17 3 3 10 29 29 56 43
28 14 79 50 114 79 127 108 177 116 303 51 38 -20 72 -36 75 -36 4 0 6 13 6
29 0 41 -46 63 -202 96 -19 3 -26 10 -22 20 4 8 1 15 -6 15 -6 0 -8 5 -4 12 5
8 0 9 -14 6 -12 -4 -24 -2 -27 3 -3 4 -12 6 -20 2 -8 -3 -15 -1 -15 5 0 13
-87 21 -122 11 -32 -9 -39 6 -8 16 11 4 18 11 14 16 -3 5 -9 7 -14 4 -5 -3
-12 0 -15 5 -4 6 -30 22 -59 35 -29 13 -59 31 -65 39 -10 11 -18 13 -31 6 -24
-13 -31 -13 -27 2 1 6 -8 17 -20 23 -13 7 -31 19 -41 28 -10 10 -22 17 -26 17
-7 0 -73 48 -122 89 -6 5 -25 16 -41 25 -17 8 -33 22 -36 31 -4 8 -13 15 -21
15 -7 0 -17 7 -20 16 -6 16 -21 11 -21 -7 0 -5 -4 -8 -10 -6 -5 1 -9 14 -7 30
3 33 -10 35 -23 5 -6 -13 -19 -23 -30 -23 -17 0 -26 -17 -52 -100 -18 -55 -33
-106 -33 -112 0 -7 -4 -13 -9 -13 -15 0 -53 -69 -45 -81 5 -8 3 -9 -5 -5 -13
8 -88 -71 -84 -86 2 -4 -3 -8 -10 -8 -7 0 -35 -20 -62 -44 -46 -40 -186 -136
-199 -136 -8 0 -180 -105 -248 -151 -31 -22 -61 -39 -66 -39 -5 0 -15 -7 -23
-16 -7 -8 -44 -36 -83 -61 -233 -151 -490 -245 -651 -238 -66 3 -73 1 -127
-33 -32 -20 -58 -40 -58 -44 0 -5 -5 -8 -10 -8 -6 0 -21 -11 -33 -24 -12 -13
-32 -26 -44 -30 -11 -4 -24 -13 -27 -21 -3 -8 -12 -15 -19 -15 -7 0 -20 -11
-27 -25 -7 -14 -22 -25 -32 -25 -29 0 -21 24 12 37 17 6 30 18 30 27 0 9 8 16
20 16 12 0 25 10 32 25 6 14 20 25 30 25 10 0 21 7 25 15 3 9 18 22 34 31 16
8 29 21 29 29 0 8 9 15 21 15 36 0 12 16 -46 30 -30 7 -55 17 -55 22 0 4 -6 8
-12 8 -20 0 -97 56 -157 114 -63 60 -105 116 -122 164 -7 21 -17 32 -30 32
-22 0 -38 28 -22 39 5 3 11 14 11 24 1 9 3 23 3 30 1 6 -4 47 -10 90 -6 43
-11 94 -11 113 l0 34 50 0 c36 0 52 -4 56 -15 4 -8 11 -15 16 -15 6 0 8 7 5
15 -7 17 9 30 18 16 3 -6 0 -19 -7 -30 -15 -25 -4 -39 17 -21 11 9 33 10 80 5
55 -6 65 -9 61 -23 -5 -15 2 -17 53 -14 52 3 59 1 64 -17 4 -18 13 -21 55 -21
28 0 54 -4 57 -10 4 -6 15 -4 30 6 16 11 25 12 30 4 7 -12 63 -4 79 11 15 14
29 10 22 -6 -3 -8 -1 -15 3 -15 5 0 11 5 13 12 2 6 28 13 59 15 30 2 56 8 57
13 2 6 15 10 29 10 16 0 27 7 30 19 3 11 17 21 34 25 18 3 29 12 29 22 0 11 5
14 16 10 11 -4 18 1 21 14 3 11 10 20 17 21 6 0 27 20 46 45 19 24 47 60 63
78 15 19 27 41 27 50 0 9 7 16 15 16 8 0 15 8 15 19 0 10 7 24 15 31 8 7 15
19 15 28 0 8 10 29 23 46 13 17 26 38 29 46 3 8 26 43 52 76 25 34 46 69 46
77 0 9 8 22 18 29 22 17 63 76 66 94 1 8 11 21 22 29 10 8 16 15 11 15 -25 1
87 140 113 140 7 0 10 6 8 12 -3 7 6 21 19 31 13 10 23 25 23 33 0 8 4 14 10
14 5 0 12 16 16 35 3 19 10 33 14 30 4 -3 11 11 14 29 4 19 19 48 35 65 21 22
27 37 24 56 -4 16 -1 25 7 25 7 0 10 7 7 15 -4 8 -1 17 5 21 7 4 6 9 -2 14
-15 9 9 58 38 79 16 11 18 19 12 37 -7 19 -4 26 17 42 17 13 25 28 25 48 0 16
5 35 11 43 9 11 7 17 -11 29 -23 15 -29 38 -11 44 5 2 7 11 4 21 -4 9 -12 14
-18 10 -6 -4 -8 3 -3 21 3 14 3 26 -2 26 -4 0 -13 14 -19 31 -10 25 -16 29
-32 24 -12 -4 -21 -2 -21 4 0 6 -4 11 -9 11 -4 0 -6 -12 -3 -26 5 -25 3 -26
-32 -22 -33 4 -36 2 -36 -22 0 -20 -5 -26 -25 -28 -17 -1 -25 3 -25 14 0 10
-6 14 -15 10 -8 -3 -15 -1 -15 4 0 18 -22 10 -27 -10 -7 -26 -17 -25 -31 3
-11 22 -11 22 -11 1 -1 -22 -39 -54 -64 -54 -8 0 -20 7 -27 15 -7 8 -18 15
-24 15 -7 0 -7 -3 1 -8 18 -11 28 -68 13 -77 -18 -11 -60 4 -60 21 0 8 -4 12
-10 9 -17 -11 -11 -20 25 -39 35 -19 43 -34 26 -52 -5 -5 -6 -27 -2 -49 10
-58 5 -73 -24 -67 -15 2 -25 0 -25 -7 0 -6 5 -11 10 -11 6 0 10 -8 10 -19 0
-11 9 -21 21 -24 31 -8 15 -24 -32 -32 -29 -5 -43 -13 -46 -26 -3 -10 -9 -19
-13 -19 -4 0 -19 -11 -35 -25 -22 -21 -30 -24 -41 -14 -12 10 -16 8 -21 -10
-5 -21 -10 -22 -47 -16 -23 3 -59 6 -81 6 -30 -1 -44 5 -58 22 -16 20 -18 21
-30 5 -9 -11 -17 -14 -23 -8 -6 6 -32 12 -60 14 -27 2 -62 6 -79 10 -16 3 -24
3 -17 0 17 -8 15 -24 -4 -24 -9 0 -18 9 -21 21 -5 16 -11 19 -32 14 -14 -3
-32 -13 -38 -22 -12 -15 -14 -15 -25 -1 -7 9 -30 19 -51 22 -21 4 -45 10 -53
13 -9 3 -14 -1 -14 -12 0 -13 -3 -15 -12 -7 -14 11 -29 13 -116 14 -40 0 -52
4 -48 14 3 8 0 11 -8 8 -8 -3 -21 12 -35 40 -24 52 -25 56 -11 56 6 0 10 -6
10 -14 0 -14 48 -32 58 -21 3 3 -1 5 -9 5 -8 0 -20 9 -27 21 -11 18 -11 23 5
34 12 9 20 10 24 3 10 -15 29 0 22 17 -3 8 -11 15 -19 15 -8 0 -14 4 -14 10 0
12 32 1 47 -17 9 -12 13 -11 25 5 14 21 95 35 101 17 3 -7 8 -6 18 1 8 7 51
10 107 9 54 -2 92 1 92 7 0 5 9 6 20 3 15 -5 22 0 30 19 12 31 14 32 39 5 23
-24 50 -17 29 8 -10 12 -9 17 5 28 10 7 27 11 38 8 20 -6 62 23 54 37 -2 4 6
13 19 20 13 7 27 25 30 41 3 16 11 29 19 29 14 0 81 89 73 97 -2 3 -14 0 -25
-7 -17 -9 -21 -8 -21 5 0 19 -14 19 -45 -1 -13 -9 -29 -13 -36 -9 -6 4 -21 2
-34 -5 -19 -10 -34 -10 -70 -1 -33 8 -51 9 -60 1 -9 -7 -20 -6 -39 3 -14 8
-23 16 -21 19 3 3 -5 3 -19 1 -21 -4 -24 -2 -19 15 5 20 1 21 -60 18 -51 -3
-64 -1 -60 10 2 7 12 13 21 13 9 1 35 3 57 5 129 13 315 18 315 9 0 -5 10 -9
23 -9 16 1 21 -4 19 -17 -3 -17 3 -18 65 -13 99 7 153 17 153 27 0 5 15 9 33
9 22 0 43 9 64 29 l32 29 -21 27 c-20 25 -25 27 -75 22 -39 -4 -51 -3 -46 6 4
7 0 7 -10 -1 -9 -8 -20 -11 -25 -8 -5 3 -16 -4 -26 -15 -16 -19 -25 -20 -89
-15 -40 4 -94 13 -122 20 -34 10 -94 14 -193 12 -140 -2 -176 4 -130 24 13 5
30 14 38 20 8 5 33 17 55 26 44 19 75 46 75 65 0 25 35 50 100 69 79 23 108
51 115 109 5 37 2 46 -22 72 -15 16 -33 29 -39 29 -7 0 -15 7 -18 15 -7 20
-83 54 -119 55 -16 0 -37 -5 -48 -10 -14 -8 -19 -7 -19 1 0 8 -4 8 -12 1 -19
-15 -66 -3 -83 21 -8 12 -15 16 -15 10 0 -15 -40 -24 -61 -13 -24 13 -40 5
-64 -30 -28 -42 -45 -39 -38 8 7 49 29 82 53 82 22 0 30 23 27 85 0 22 2 52 6
68 5 16 3 27 -3 27 -5 0 -10 -9 -10 -20 0 -11 -4 -20 -10 -20 -5 0 -10 7 -10
15 0 17 38 97 50 105 4 3 6 25 6 50 -1 25 3 48 9 52 5 4 -6 8 -25 8 -30 1 -32
2 -17 11 10 6 21 8 24 5 10 -10 43 26 43 46 0 10 4 18 10 18 5 0 12 16 16 35
3 19 12 35 19 35 7 0 16 7 19 16 4 10 12 14 22 10 12 -4 14 -1 9 14 -5 14 -2
20 9 20 9 0 16 -9 16 -20 0 -13 7 -20 19 -20 11 0 32 -17 48 -37 15 -21 31
-39 36 -41 4 -2 7 -10 7 -18 0 -11 4 -12 19 -4 27 14 31 13 31 -11 0 -18 -5
-21 -30 -17 -20 3 -30 0 -30 -9 0 -7 -5 -13 -11 -13 -14 0 -39 -25 -39 -40 0
-12 61 -106 86 -132 22 -22 32 -15 40 27 4 24 1 43 -10 59 -8 13 -17 36 -20
49 -4 21 -1 25 15 24 10 -1 19 -5 19 -9 0 -4 7 -8 15 -8 8 0 15 -6 15 -14 0
-8 20 -25 45 -37 25 -12 45 -27 45 -32 0 -5 6 -7 14 -4 8 3 20 -1 26 -9 7 -8
18 -14 25 -14 7 0 18 -6 24 -14 6 -7 33 -19 59 -26 26 -7 52 -17 59 -22 30
-23 253 24 253 53 0 14 108 8 120 -6 18 -21 46 -18 70 7 19 21 19 23 4 29 -16
5 -16 6 -1 12 10 4 21 -1 27 -11 11 -16 11 -16 6 0 -3 10 -1 20 5 23 5 4 7 11
3 16 -3 5 -10 7 -15 4 -5 -4 -9 5 -9 19 0 14 6 26 13 26 8 0 9 3 1 8 -21 14
-23 65 -3 93 17 24 17 28 3 40 -17 14 -45 15 -148 4 -72 -7 -74 -5 -39 36 12
15 10 20 -24 48 l-38 31 37 0 c26 0 45 -8 68 -30 17 -16 29 -34 25 -40 -4 -6
4 -6 19 2 28 12 35 38 12 38 -8 0 -18 9 -21 21 -4 11 -21 27 -38 34 -18 7 -41
22 -52 32 -11 10 -29 19 -40 20 -11 1 -40 8 -65 16 -63 21 -256 51 -313 48
-27 -1 -54 2 -60 7 -13 10 -45 10 -62 0 -6 -3 -22 -8 -37 -12 -17 -4 -28 -13
-28 -24 0 -15 -2 -15 -10 -2 -6 10 -10 11 -10 3 0 -7 -6 -13 -13 -13 -7 0 -19
-9 -27 -20 -8 -12 -26 -20 -42 -20 -25 0 -31 -6 -27 -27 1 -5 -16 -11 -37 -15
-29 -5 -42 -2 -51 8 -7 11 -13 12 -18 4 -4 -6 -15 -8 -25 -5 -10 3 -21 1 -25
-5 -5 -8 -14 -5 -26 9 -11 12 -26 21 -35 21 -8 0 -19 12 -25 27 -6 15 -13 23
-17 17 -8 -11 -18 -11 -52 3 -28 12 -119 11 -165 -2 -16 -4 -49 -16 -73 -27
-23 -10 -47 -16 -52 -13 -5 3 -21 -2 -35 -11 -14 -9 -25 -14 -25 -11 0 12
-117 -54 -151 -85 -20 -18 -41 -50 -48 -71 -7 -20 -16 -37 -21 -37 -12 0 -11
163 1 254 9 71 15 90 40 136 5 8 15 30 24 48 8 18 24 46 35 62 11 15 20 35 20
44 0 9 5 16 10 16 6 0 10 8 8 18 -2 13 3 16 21 14 18 -2 21 1 13 11 -8 10 -5
24 14 55 14 23 26 42 27 42 1 0 17 -4 35 -9 26 -8 34 -7 39 5 3 9 12 13 21 9
8 -3 18 -1 22 5 4 6 23 13 44 17 31 5 40 2 52 -16 16 -22 37 -20 28 2 -6 15
71 38 84 25 5 -5 17 8 28 29 22 45 69 93 90 93 8 0 14 6 14 13 0 20 30 44 65
53 30 7 84 39 97 58 4 6 12 5 21 -2 11 -10 28 -8 78 8 34 11 70 27 78 34 29
25 96 40 130 28 17 -6 54 -8 81 -5 46 5 50 4 44 -12 -6 -15 -3 -17 14 -13 12
4 25 2 28 -3 3 -5 13 -9 22 -9 12 0 14 3 5 8 -10 7 -10 12 0 25 11 15 15 15
40 2 15 -8 29 -14 30 -14 13 2 57 -24 76 -45 14 -14 33 -26 43 -26 10 0 18 -4
18 -10 0 -5 5 -10 11 -10 11 0 39 -24 39 -34 0 -2 -8 -7 -17 -9 -17 -4 -17 -5
0 -6 10 0 15 -5 12 -11 -3 -5 1 -10 10 -10 9 0 13 -4 10 -10 -6 -9 8 -14 28
-11 4 0 7 -5 7 -13 0 -7 9 -16 21 -19 11 -3 23 -15 26 -26 3 -11 11 -22 19
-25 8 -3 14 -10 14 -15 0 -12 48 -61 59 -61 5 0 16 -11 24 -24 9 -13 41 -49
71 -81 l56 -59 -6 -65 c-4 -36 -10 -70 -14 -76 -4 -5 -7 -47 -6 -93 1 -62 -2
-81 -11 -77 -7 2 -13 0 -13 -5 0 -6 4 -10 9 -10 4 0 14 -20 21 -45 7 -25 27
-75 45 -112 18 -36 31 -72 28 -78 -2 -7 0 -16 6 -20 6 -3 11 -23 11 -44 0 -31
8 -47 44 -87 50 -54 52 -67 8 -35 -56 40 -61 27 -39 -94 8 -43 12 -132 10
-232 -1 -100 1 -163 7 -163 6 0 10 -8 10 -19 0 -10 6 -32 13 -49 l12 -30 45
18 c31 12 46 24 48 39 2 11 8 21 13 21 21 0 6 37 -26 63 -19 15 -35 32 -35 38
0 14 66 43 84 36 9 -4 25 -26 35 -49 l19 -43 11 28 c6 16 11 33 11 38 0 5 4 9
10 9 22 0 -24 123 -53 142 -6 4 -26 6 -45 4 -29 -2 -33 0 -28 18 3 12 6 24 6
27 0 3 10 11 23 16 34 16 52 102 51 248 -1 136 -12 323 -19 336 -3 4 -8 34
-11 66 -2 32 -7 66 -10 76 -3 10 -1 24 5 31 7 8 7 25 2 47 -16 60 -20 108 -10
114 16 10 10 27 -7 21 -14 -5 -15 -4 -5 8 9 11 8 14 -6 12 -12 -1 -18 6 -18
21 0 11 -3 25 -7 29 -4 4 -5 18 -2 31 5 19 2 25 -16 30 -14 4 -20 12 -17 23 3
13 -1 16 -19 12 -24 -4 -33 11 -13 23 6 5 9 42 6 102 -4 94 -4 96 -43 140 -78
89 -104 113 -120 113 -10 0 -32 11 -50 25 -18 14 -37 25 -42 25 -4 0 -19 11
-32 25 l-23 25 -768 0 c-747 0 -767 0 -762 -19z m1796 -309 c-5 -12 -7 -12
-15 2 -11 20 1 44 12 25 5 -6 6 -19 3 -27z m-1123 -652 c0 -5 -2 -10 -4 -10
-3 0 -8 5 -11 10 -3 6 -1 10 4 10 6 0 11 -4 11 -10z m585 -174 c37 -24 20 -41
-27 -28 -22 6 -41 6 -52 0 -16 -9 -15 -11 5 -29 12 -10 26 -19 31 -19 4 0 8
-7 8 -15 0 -12 -13 -15 -55 -15 -31 0 -55 4 -55 10 0 6 -10 15 -22 19 -23 9
-23 9 5 20 33 13 35 27 5 34 -18 5 -19 9 -9 21 24 29 123 30 166 2z m206 -18
c5 -74 3 -102 -8 -105 -9 -3 -13 8 -13 39 0 24 -3 53 -6 66 -5 16 -2 22 10 22
9 0 17 -9 17 -22z m-166 -28 c3 -5 1 -10 -4 -10 -6 0 -11 5 -11 10 0 6 2 10 4
10 3 0 8 -4 11 -10z m-937 -67 c2 -8 -6 -13 -22 -13 -25 0 -33 10 -19 24 10
10 36 3 41 -11z m1118 -65 c-3 -26 -8 -32 -22 -30 -30 6 -31 12 -5 31 18 14
21 20 10 24 -10 4 -9 6 3 6 14 1 17 -6 14 -31z m-1426 -742 c0 -2 -11 -6 -25
-8 -14 -3 -25 -1 -25 3 0 5 11 9 25 9 14 0 25 -2 25 -4z m-270 -36 c0 -5 -4
-10 -10 -10 -5 0 -10 5 -10 10 0 6 5 10 10 10 6 0 10 -4 10 -10z m333 -316
c-6 -17 -23 -9 -23 11 0 8 6 12 14 9 8 -3 12 -12 9 -20z m67 -39 c0 -8 7 -15
15 -15 9 0 15 -9 15 -21 0 -15 -4 -19 -16 -15 -12 4 -15 2 -10 -9 3 -8 2 -15
-3 -15 -14 0 -31 25 -37 58 -6 28 -4 32 15 32 12 0 21 -6 21 -15z m1420 -6 c0
-11 -4 -17 -10 -14 -5 3 -10 13 -10 21 0 8 5 14 10 14 6 0 10 -9 10 -21z m20
-63 c0 -3 -4 -8 -10 -11 -5 -3 -10 -1 -10 4 0 6 5 11 10 11 6 0 10 -2 10 -4z
m20 -62 c0 -8 -4 -12 -10 -9 -5 3 -10 10 -10 16 0 5 5 9 10 9 6 0 10 -7 10
-16z m-408 -150 c-9 -16 -10 -14 -9 8 1 15 6 23 11 18 4 -4 4 -16 -2 -26z
m753 -974 c8 -13 -5 -13 -25 0 -13 8 -13 10 2 10 9 0 20 -4 23 -10z m-5 -174
c0 -3 -4 -8 -10 -11 -5 -3 -10 -1 -10 4 0 6 5 11 10 11 6 0 10 -2 10 -4z m780
-207 c0 -12 -37 -12 -45 0 -3 5 3 11 12 13 21 5 33 0 33 -13z m-60 -41 c0 -5
-7 -8 -15 -8 -8 0 -15 -4 -15 -9 0 -5 -9 -12 -20 -15 -11 -3 -29 -9 -40 -12
-15 -4 -20 -1 -20 15 0 14 5 19 14 15 8 -3 25 5 38 18 18 18 27 21 41 13 9 -5
17 -13 17 -17z m-115 12 c-3 -5 -10 -10 -16 -10 -5 0 -9 5 -9 10 0 6 7 10 16
10 8 0 12 -4 9 -10z m-3430 -110 c3 -5 1 -10 -4 -10 -6 0 -11 5 -11 10 0 6 2
10 4 10 3 0 8 -4 11 -10z m670 -191 c10 -15 -1 -23 -20 -15 -9 3 -13 10 -10
16 8 13 22 13 30 -1z m-17 -52 c2 -10 -3 -17 -12 -17 -18 0 -29 16 -21 31 9
14 29 6 33 -14z m-13 -37 c4 -6 1 -18 -7 -27 -7 -9 -12 -24 -10 -35 2 -11 -3
-18 -12 -18 -22 0 -28 16 -10 30 8 7 12 20 9 28 -10 26 16 45 30 22z m-28
-106 c4 -10 0 -20 -10 -25 -9 -6 -13 -17 -10 -29 4 -14 0 -20 -11 -20 -14 0
-16 6 -10 38 4 20 9 40 11 45 7 12 23 8 30 -9z m-31 -105 c10 -17 -13 -36 -27
-22 -12 12 -4 33 11 33 5 0 12 -5 16 -11z m-16 -52 c0 -8 -3 -17 -7 -20 -9 -9
-34 13 -27 24 8 14 34 11 34 -4z m-12 -60 c2 -12 -3 -17 -17 -17 -12 0 -21 6
-21 13 0 31 32 34 38 4z m-22 -63 c-5 -13 -9 -14 -21 -4 -13 11 -13 14 2 26
20 14 29 3 19 -22z m-6 -43 c0 -23 -16 -36 -25 -21 -9 14 1 40 15 40 5 0 10
-9 10 -19z m-10 -75 c-5 -5 -17 -5 -27 -2 -17 7 -17 8 1 22 16 11 21 11 27 2
5 -7 4 -17 -1 -22z m328 -6 c-14 -23 -38 -27 -38 -7 0 19 10 27 32 27 16 0 16
-3 6 -20z m-341 -56 c-3 -4 -13 -4 -22 0 -13 5 -13 9 -3 26 l13 20 9 -20 c5
-11 6 -23 3 -26z m282 7 c-8 -11 -19 -16 -31 -13 -14 3 -16 7 -7 18 6 8 20 14
30 14 16 0 17 -3 8 -19z m-286 -72 c-5 -5 -14 -4 -22 0 -11 7 -11 13 -1 32
l13 23 9 -24 c5 -13 5 -27 1 -31z m227 27 c0 -21 -20 -30 -33 -17 -9 9 -8 14
3 21 21 14 30 12 30 -4z m-50 -43 c0 -5 -5 -15 -10 -23 -7 -11 -12 -12 -21 -3
-6 6 -8 16 -5 22 8 12 36 15 36 4z m-161 -35 c5 -13 7 -26 4 -30 -5 -9 -43 28
-43 42 0 19 31 10 39 -12z m86 -9 c10 -15 -1 -23 -20 -15 -9 3 -13 10 -10 16
8 13 22 13 30 -1z m-115 -159 c17 0 30 36 18 48 -9 9 -9 12 -1 12 15 0 26 -35
18 -59 -4 -14 0 -23 14 -30 34 -19 61 -74 61 -127 0 -47 -16 -88 -81 -204 -10
-19 -19 -47 -19 -62 0 -22 -8 -31 -42 -46 -38 -16 -48 -28 -88 -107 -47 -92
-65 -112 -65 -71 0 13 3 22 7 20 4 -2 9 0 12 5 4 5 2 12 -4 16 -10 6 -5 53 12
98 8 20 7 31 -3 43 -8 10 -9 18 -2 22 6 4 20 27 32 50 25 48 41 50 21 3 -6
-17 -10 -36 -8 -43 3 -7 11 7 20 32 8 27 24 50 37 56 37 19 46 32 17 27 -19
-4 -26 -1 -26 11 0 9 -5 16 -11 16 -5 0 -7 5 -4 10 8 13 -6 13 -39 0 -17 -6
-24 -14 -20 -25 4 -8 -1 -26 -10 -40 -9 -13 -16 -32 -16 -41 0 -16 -26 -43
-42 -44 -15 0 -7 28 18 65 27 41 27 79 -1 51 -8 -8 -15 -19 -15 -25 0 -6 -7
-11 -16 -11 -13 0 -15 7 -9 38 4 20 14 52 22 70 14 28 20 33 47 30 26 -2 30
-7 28 -25 -2 -13 2 -23 7 -23 6 0 11 6 11 13 0 12 53 47 72 47 7 0 8 -15 4
-40 -3 -22 -3 -40 1 -40 15 1 48 35 61 64 17 37 8 45 -17 15 -17 -20 -20 -21
-21 -6 0 9 -6 18 -12 18 -7 1 -35 3 -61 4 -57 3 -65 9 -45 32 9 10 19 28 22
41 5 13 15 22 27 22 21 0 26 -16 7 -23 -8 -3 -6 -6 5 -6 10 -1 17 6 17 17 -1
30 -27 53 -62 54 -18 1 -37 6 -41 12 -6 7 -7 6 -4 -4 7 -25 -10 -60 -28 -54
-18 7 -20 -7 -3 -24 8 -8 15 -9 25 -1 9 8 13 8 13 0 0 -6 -18 -27 -40 -47 -22
-20 -43 -47 -46 -60 -3 -13 -11 -24 -16 -24 -6 0 -8 -9 -5 -20 3 -11 1 -23 -4
-26 -5 -3 -9 -23 -9 -44 0 -29 5 -42 20 -50 11 -6 20 -17 20 -25 0 -8 -9 -20
-20 -27 -11 -7 -20 -21 -20 -30 0 -22 16 -24 24 -3 3 8 12 15 20 15 13 0 13
-4 0 -35 -9 -24 -11 -41 -5 -52 5 -10 12 -26 15 -36 3 -10 10 -16 16 -12 6 4
9 -11 8 -39 -2 -41 -5 -45 -38 -55 -31 -10 -37 -9 -52 10 -13 16 -25 20 -43
15 -21 -5 -28 -1 -45 26 -32 53 -34 81 -7 135 36 71 47 118 36 156 -7 26 -5
37 12 60 11 15 31 57 45 94 32 86 49 118 77 144 31 30 106 62 143 61 24 -1 34
5 45 26 l13 27 4 -32 c2 -18 7 -33 12 -33z m2850 -370 c0 -5 -2 -10 -4 -10 -3
0 -8 5 -11 10 -3 6 -1 10 4 10 6 0 11 -4 11 -10z m-4097 -62 c-2 -5 -8 -8 -14
-8 -11 0 -12 33 -2 44 8 8 23 -25 16 -36z m1052 -88 c3 -6 3 -20 -1 -32 -6
-21 -7 -21 -20 -3 -8 10 -14 25 -14 32 0 15 26 18 35 3z m-1068 -92 c-3 -8 -6
-5 -6 6 -1 11 2 17 5 13 3 -3 4 -12 1 -19z m-107 -110 c0 -3 -6 -9 -12 -11
-10 -4 -9 -8 2 -16 12 -8 8 -11 -17 -11 -21 0 -32 5 -30 13 1 7 -7 11 -20 10
-23 -3 -32 12 -13 19 18 6 90 3 90 -4z m40 -38 c0 -5 -4 -10 -9 -10 -6 0 -13
5 -16 10 -3 6 1 10 9 10 9 0 16 -4 16 -10z m-63 -34 c-2 -6 -11 -10 -20 -8 -8
1 -18 -2 -22 -8 -3 -5 -10 -10 -16 -10 -12 0 -12 23 2 37 13 13 61 4 56 -11z
m-77 -46 c0 -5 -4 -10 -10 -10 -5 0 -10 5 -10 10 0 6 5 10 10 10 6 0 10 -4 10
-10z m25 -30 c3 -5 1 -10 -4 -10 -6 0 -11 5 -11 10 0 6 2 10 4 10 3 0 8 -4 11
-10z m-13 -55 c0 -5 -5 -11 -11 -13 -6 -2 -11 4 -11 13 0 9 5 15 11 13 6 -2
11 -8 11 -13z m-522 -129 c0 -3 -4 -8 -10 -11 -5 -3 -10 -1 -10 4 0 6 5 11 10
11 6 0 10 -2 10 -4z m145 -206 c3 -5 1 -10 -4 -10 -6 0 -11 5 -11 10 0 6 2 10
4 10 3 0 8 -4 11 -10z m-138 -336 c-3 -3 -12 -4 -19 -1 -8 3 -5 6 6 6 11 1 17
-2 13 -5z m388 -283 c3 -5 1 -12 -5 -16 -5 -3 -10 1 -10 9 0 18 6 21 15 7z
m-80 -251 c3 -5 -1 -10 -9 -10 -9 0 -16 5 -16 10 0 6 4 10 9 10 6 0 13 -4 16
-10z m-210 -370 c3 -5 1 -10 -4 -10 -6 0 -11 5 -11 10 0 6 2 10 4 10 3 0 8 -4
11 -10z m-77 -27 c-2 -10 -11 -19 -21 -21 -16 -3 -17 -1 -5 17 16 25 31 27 26
4z"/>
<path d="M2020 3970 c-20 -16 -22 -20 -7 -20 9 0 17 -4 17 -10 0 -5 -7 -10
-15 -10 -8 0 -15 -4 -15 -10 0 -15 26 -12 39 4 7 8 11 26 9 40 l-3 25 -25 -19z"/>
<path d="M1680 3740 c-6 -11 -8 -20 -6 -20 3 0 10 9 16 20 6 11 8 20 6 20 -3
0 -10 -9 -16 -20z"/>
<path d="M2507 9109 c7 -7 15 -10 18 -7 3 3 -2 9 -12 12 -14 6 -15 5 -6 -5z"/>
<path d="M2327 9094 c-8 -8 1 -24 14 -24 5 0 9 7 9 15 0 15 -12 20 -23 9z"/>
<path d="M2838 8633 c6 -2 18 -2 25 0 6 3 1 5 -13 5 -14 0 -19 -2 -12 -5z"/>
<path d="M2060 8229 c0 -5 9 -9 20 -9 11 0 20 4 20 8 0 4 -9 8 -20 9 -11 1
-20 -2 -20 -8z"/>
<path d="M1965 8180 c4 -6 11 -8 16 -5 14 9 11 15 -7 15 -8 0 -12 -5 -9 -10z"/>
<path d="M5348 7993 c6 -2 18 -2 25 0 6 3 1 5 -13 5 -14 0 -19 -2 -12 -5z"/>
<path d="M3355 7967 c-5 -18 -13 -24 -36 -24 -16 0 -29 4 -29 8 0 5 -10 5 -22
0 -14 -5 -35 -3 -55 6 -31 12 -33 12 -33 -8 0 -11 9 -42 20 -68 20 -45 62 -77
98 -72 6 1 12 -8 12 -21 0 -15 9 -27 23 -33 12 -6 23 -20 25 -32 3 -23 107
-123 128 -123 6 0 27 -11 47 -24 19 -13 38 -22 41 -18 3 3 6 -1 6 -10 0 -8 11
-20 25 -26 14 -6 25 -16 25 -21 0 -5 7 -17 16 -25 8 -9 11 -16 5 -16 -6 0 -11
-7 -11 -16 0 -11 6 -15 20 -11 11 3 20 1 20 -4 0 -10 32 0 41 13 3 5 22 10 43
11 20 2 44 11 54 21 16 17 16 18 -15 11 -18 -3 -34 -2 -38 4 -3 7 2 11 14 11
12 0 21 5 21 11 0 5 8 9 18 8 46 -4 59 20 22 43 -14 9 -18 19 -13 37 5 22 4
23 -21 17 -19 -5 -26 -3 -26 9 0 22 -9 19 -32 -10 -22 -28 -38 -32 -38 -10 0
31 -65 47 -73 18 -3 -10 -5 -3 -6 15 -1 22 -6 32 -17 32 -8 0 -13 -4 -10 -8 2
-4 -11 -6 -30 -4 -28 4 -32 7 -23 18 9 11 8 14 -5 14 -9 0 -19 6 -22 14 -3 8
-11 13 -19 10 -7 -3 -15 2 -18 10 -4 9 -15 16 -26 16 -11 0 -23 5 -26 10 -3 6
-15 10 -26 10 -10 0 -39 19 -64 43 l-44 43 32 13 c18 8 36 13 40 12 5 -1 21 8
37 19 16 11 32 19 37 18 4 -1 25 1 46 6 38 7 39 8 21 27 -13 15 -26 19 -46 15
-16 -3 -28 -1 -28 4 0 6 5 10 10 10 6 0 10 5 10 11 0 8 -4 8 -12 2 -7 -6 -30
-13 -50 -17 -32 -6 -37 -4 -32 9 3 8 3 15 0 15 -3 0 -8 -10 -11 -23z m445
-377 c0 -5 -7 -10 -16 -10 -8 0 -12 5 -9 10 3 6 10 10 16 10 5 0 9 -4 9 -10z
m-40 -50 c0 -5 -5 -10 -11 -10 -5 0 -7 5 -4 10 3 6 8 10 11 10 2 0 4 -4 4 -10z"/>
<path d="M2745 7930 c3 -5 8 -10 11 -10 2 0 4 5 4 10 0 6 -5 10 -11 10 -5 0
-7 -4 -4 -10z"/>
<path d="M2556 7921 c-3 -5 1 -11 9 -15 15 -6 29 7 18 18 -9 9 -21 8 -27 -3z"/>
<path d="M3645 7919 c-9 -13 -7 -15 28 -23 31 -7 35 1 10 20 -22 16 -30 17
-38 3z"/>
<path d="M2510 7900 c0 -11 2 -20 4 -20 2 0 6 9 9 20 3 11 1 20 -4 20 -5 0 -9
-9 -9 -20z"/>
<path d="M2447 7860 c-3 -11 0 -20 6 -20 8 0 7 -4 -2 -9 -9 -6 -10 -11 -2 -15
6 -4 14 0 17 8 5 12 11 13 24 6 24 -13 27 -13 34 5 4 12 0 14 -18 9 -18 -4
-25 -1 -29 15 -7 27 -23 27 -30 1z"/>
<path d="M2405 7830 c-4 -7 -1 -16 6 -21 17 -10 26 8 11 23 -6 6 -12 6 -17 -2z"/>
<path d="M2348 7793 c7 -3 16 -2 19 1 4 3 -2 6 -13 5 -11 0 -14 -3 -6 -6z"/>
<path d="M2045 7645 c6 -74 23 -135 38 -135 5 0 6 8 2 18 -4 9 -8 31 -10 47
-2 17 -10 55 -19 85 l-16 55 5 -70z"/>
<path d="M3836 7647 c3 -10 9 -15 12 -12 3 3 0 11 -7 18 -10 9 -11 8 -5 -6z"/>
<path d="M3872 7643 c-19 -8 -4 -23 24 -23 16 0 24 5 22 13 -5 13 -26 18 -46
10z"/>
<path d="M2435 7600 c3 -5 10 -10 16 -10 5 0 9 5 9 10 0 6 -7 10 -16 10 -8 0
-12 -4 -9 -10z"/>
<path d="M3591 7374 c0 -11 3 -14 6 -6 3 7 2 16 -1 19 -3 4 -6 -2 -5 -13z"/>
<path d="M4130 7341 c0 -11 78 -26 87 -17 4 3 -3 6 -15 6 -11 0 -24 5 -27 10
-8 13 -45 13 -45 1z"/>
<path d="M3153 7267 c-21 -9 -38 -35 -29 -44 2 -2 17 7 32 21 32 27 31 39 -3
23z"/>
<path d="M3197 7263 c-4 -3 -7 -11 -7 -17 0 -6 5 -5 12 2 6 6 9 14 7 17 -3 3
-9 2 -12 -2z"/>
<path d="M3715 7189 c-11 -17 -2 -18 25 -4 24 14 24 14 3 15 -12 0 -25 -5 -28
-11z"/>
<path d="M3991 7184 c0 -11 3 -14 6 -6 3 7 2 16 -1 19 -3 4 -6 -2 -5 -13z"/>
<path d="M3585 7160 c-3 -5 -1 -10 4 -10 6 0 11 5 11 10 0 6 -2 10 -4 10 -3 0
-8 -4 -11 -10z"/>
<path d="M3506 7122 c-3 -6 -1 -14 5 -17 15 -10 25 3 12 16 -7 7 -13 7 -17 1z"/>
<path d="M2570 6780 c19 -13 30 -13 30 0 0 6 -10 10 -22 10 -19 0 -20 -2 -8
-10z"/>
<path d="M4479 5981 c7 -12 17 -18 26 -15 8 4 31 -1 49 -10 22 -11 55 -15 92
-14 38 2 59 -2 62 -10 2 -7 10 -12 17 -12 7 0 15 -3 18 -7 2 -5 2 -3 1 4 -3
14 99 7 129 -9 17 -8 19 -8 14 6 -3 8 -2 18 3 21 6 4 10 15 10 26 0 16 -7 19
-44 19 -24 0 -51 3 -60 6 -11 4 -16 1 -16 -10 0 -20 -19 -21 -26 -2 -3 9 -22
14 -55 14 -34 0 -52 -5 -56 -14 -7 -18 -64 -19 -60 -1 1 8 -9 11 -35 9 -20 -2
-46 2 -58 8 -20 11 -21 10 -11 -9z m371 -36 c11 -13 8 -15 -14 -15 -16 0 -26
5 -26 15 0 8 6 15 14 15 7 0 19 -7 26 -15z"/>
<path d="M4340 5980 c0 -5 5 -10 10 -10 6 0 10 5 10 10 0 6 -4 10 -10 10 -5 0
-10 -4 -10 -10z"/>
<path d="M4608 5973 c7 -3 16 -2 19 1 4 3 -2 6 -13 5 -11 0 -14 -3 -6 -6z"/>
<path d="M4605 5920 c3 -5 8 -10 11 -10 2 0 4 5 4 10 0 6 -5 10 -11 10 -5 0
-7 -4 -4 -10z"/>
<path d="M4085 5900 c-3 -5 -2 -10 4 -10 5 0 13 5 16 10 3 6 2 10 -4 10 -5 0
-13 -4 -16 -10z"/>
<path d="M4053 5863 c-15 -5 -17 -23 -4 -23 5 0 11 7 15 15 3 8 4 15 3 14 -1
0 -8 -3 -14 -6z"/>
<path d="M3985 5802 c-27 -22 -40 -53 -19 -45 7 3 14 11 14 18 0 7 10 20 23
28 12 9 18 16 12 16 -5 0 -19 -7 -30 -17z"/>
<path d="M3890 5725 c-10 -13 -9 -15 9 -15 11 0 21 4 21 9 0 18 -18 21 -30 6z"/>
<path d="M3847 5686 c-14 -11 -15 -15 -4 -19 15 -5 37 10 37 25 0 12 -12 9
-33 -6z"/>
<path d="M3800 5650 c-13 -8 -13 -11 3 -27 16 -16 17 -16 17 10 0 30 0 30 -20
17z"/>
<path d="M3744 5590 c0 -10 6 -16 13 -13 7 3 13 9 13 13 0 4 -6 10 -13 13 -7
3 -13 -3 -13 -13z"/>
<path d="M2280 5463 c0 -15 29 -49 30 -35 0 7 -7 20 -15 28 -8 9 -15 11 -15 7z"/>
<path d="M2515 5420 c3 -5 10 -10 16 -10 5 0 9 5 9 10 0 6 -7 10 -16 10 -8 0
-12 -4 -9 -10z"/>
<path d="M2272 5396 c7 -8 15 -12 17 -11 5 6 -10 25 -20 25 -5 0 -4 -6 3 -14z"/>
<path d="M2265 5350 c3 -5 8 -10 11 -10 2 0 4 5 4 10 0 6 -5 10 -11 10 -5 0
-7 -4 -4 -10z"/>
<path d="M2740 4849 c0 -5 5 -7 10 -4 6 3 10 8 10 11 0 2 -4 4 -10 4 -5 0 -10
-5 -10 -11z"/>
<path d="M711 3984 c0 -11 3 -14 6 -6 3 7 2 16 -1 19 -3 4 -6 -2 -5 -13z"/>
<path d="M715 3930 c-3 -5 -1 -10 4 -10 6 0 11 5 11 10 0 6 -2 10 -4 10 -3 0
-8 -4 -11 -10z"/>
<path d="M530 3639 c0 -5 5 -7 10 -4 6 3 10 8 10 11 0 2 -4 4 -10 4 -5 0 -10
-5 -10 -11z"/>
<path d="M590 3615 c0 -8 5 -15 10 -15 6 0 10 7 10 15 0 8 -4 15 -10 15 -5 0
-10 -7 -10 -15z"/>
<path d="M545 3590 c4 -6 11 -8 16 -5 14 9 11 15 -7 15 -8 0 -12 -5 -9 -10z"/>
<path d="M5318 3443 c7 -3 16 -2 19 1 4 3 -2 6 -13 5 -11 0 -14 -3 -6 -6z"/>
<path d="M175 2820 c-3 -5 -1 -10 4 -10 6 0 11 5 11 10 0 6 -2 10 -4 10 -3 0
-8 -4 -11 -10z"/>
<path d="M341 2774 c0 -11 3 -14 6 -6 3 7 2 16 -1 19 -3 4 -6 -2 -5 -13z"/>
<path d="M140 2701 c0 -5 5 -13 10 -16 6 -3 10 -2 10 4 0 5 -4 13 -10 16 -5 3
-10 2 -10 -4z"/>
<path d="M391 2457 c-1 -22 27 -34 42 -17 10 10 7 12 -10 7 -15 -3 -23 0 -26
12 -4 14 -5 13 -6 -2z"/>
<path d="M35 2380 c3 -5 10 -10 16 -10 5 0 9 5 9 10 0 6 -7 10 -16 10 -8 0
-12 -4 -9 -10z"/>
<path d="M20 2346 c0 -2 7 -7 16 -10 8 -3 12 -2 9 4 -6 10 -25 14 -25 6z"/>
<path d="M7 2319 c7 -7 15 -10 18 -7 3 3 -2 9 -12 12 -14 6 -15 5 -6 -5z"/>
<path d="M376 2275 c-19 -15 -19 -15 2 -15 13 0 22 6 22 15 0 18 0 18 -24 0z"/>
<path d="M355 2220 c3 -5 15 -10 26 -10 10 0 19 5 19 10 0 6 -12 10 -26 10
-14 0 -23 -4 -19 -10z"/>
<path d="M33 2133 c-7 -15 -11 -28 -9 -30 7 -7 56 39 51 48 -11 17 -30 9 -42
-18z"/>
<path d="M220 2030 c0 -5 5 -10 10 -10 6 0 10 5 10 10 0 6 -4 10 -10 10 -5 0
-10 -4 -10 -10z"/>
<path d="M7 2013 c-4 -3 -7 -11 -7 -17 0 -6 5 -5 12 2 6 6 9 14 7 17 -3 3 -9
2 -12 -2z"/>
<path d="M70 1970 c0 -5 7 -10 15 -10 8 0 15 5 15 10 0 6 -7 10 -15 10 -8 0
-15 -4 -15 -10z"/>
<path d="M10 1950 c0 -5 5 -10 10 -10 6 0 10 5 10 10 0 6 -4 10 -10 10 -5 0
-10 -4 -10 -10z"/>
<path d="M135 1930 c-3 -5 -2 -10 4 -10 5 0 13 5 16 10 3 6 2 10 -4 10 -5 0
-13 -4 -16 -10z"/>
<path d="M75 1900 c4 -6 11 -8 16 -5 14 9 11 15 -7 15 -8 0 -12 -5 -9 -10z"/>
<path d="M0 1825 c0 -9 5 -15 11 -13 14 5 14 21 0 26 -6 2 -11 -4 -11 -13z"/>
</g>
</svg>
